# xmcd
#
# Track frame offsets:
#	150
#	16722
#	33903
#	52191
#	71197
#	88360
#	110354
#
# Disc length: 1698 seconds
#
# Revision: 1
# Processed by: cddbd v1.5.1PL0 Copyright (c) Steve Scherf et al.
# Submitted via: EasyCDDAExtractor 7.1.0.1
#
DISCID=5b06a007
DTITLE=Rick Astley - Keep It Turned On
DYEAR=1900
DGENRE=
TTITLE0=Keep It Turned On(Album Version)
TTITLE1=Keep It Turned On(Single Edit)
TTITLE2=Keep It Turned On(SA And SH Mix)
TTITLE3=Keep It Turned On(SA And SH Extended Mix)
TTITLE4=Keep It Turned On(Booya Mix)
TTITLE5=Keep It Turned On(DB 4 Radio Mix)
TTITLE6=Keep It Turned On(Soundproof Mix)
EXTD=
EXTT0=
EXTT1=
EXTT2=
EXTT3=
EXTT4=
EXTT5=
EXTT6=
PLAYORDER=
